<svg width="44" height="45" viewBox="0 0 44 45" fill="none" xmlns="http://www.w3.org/2000/svg">
<g clip-path="url(#clip0_0_228)">
<path d="M31.158 14.929L30.6872 13.3691C30.0892 11.5971 28.1775 10.6487 26.4173 11.2508C25.4271 11.5894 24.6495 12.3723 24.3131 13.3691L23.8423 14.929C23.4461 16.2446 23.363 17.6356 23.5996 18.9895C23.8154 20.1293 24.5342 21.1086 25.5532 21.6509L25.0259 33.5169C24.9553 34.1792 25.1687 34.8404 25.6126 35.3345C26.5671 36.3856 28.1874 36.4587 29.2315 35.4977C29.2879 35.4458 29.342 35.3913 29.3936 35.3345C29.8276 34.8544 30.0406 34.2126 29.9803 33.5664L29.4501 21.6494C30.4677 21.1069 31.1853 20.1282 31.4008 18.9895C31.6373 17.6356 31.5542 16.2446 31.158 14.929ZM29.9561 18.7325C29.7973 19.5515 29.2176 20.2234 28.4344 20.4962C28.1372 20.6087 27.9457 20.9011 27.96 21.2205L28.5173 33.683C28.543 33.9275 28.4628 34.1712 28.2973 34.3519C27.8557 34.792 27.1446 34.792 26.703 34.3519C26.5292 34.1566 26.4503 33.8938 26.4874 33.6343L27.0404 21.2205C27.0547 20.9011 26.8632 20.6087 26.5659 20.4962C25.7827 20.2234 25.203 19.5515 25.0442 18.7325C24.8481 17.6085 24.9172 16.4538 25.2459 15.3617L25.7167 13.801C26.081 12.8094 27.1747 12.3029 28.1598 12.6696C28.6806 12.8635 29.091 13.2768 29.2836 13.801L29.7544 15.3617C30.0828 16.4539 30.1519 17.6085 29.9561 18.7325Z" fill="#363853"/>
<path d="M19.8 11.0739C19.395 11.0739 19.0667 11.4044 19.0667 11.8121V18.1508L17.0815 20.1493C16.9347 20.2965 16.8566 20.4997 16.8667 20.7081L17.5083 33.6276C17.5236 33.9062 17.4232 34.1788 17.2311 34.3799C16.8297 34.7876 16.176 34.7906 15.7709 34.3864C15.7687 34.3843 15.7666 34.3821 15.7645 34.3799C15.5723 34.1788 15.472 33.9062 15.4873 33.6276L16.1333 20.7081C16.1436 20.4998 16.0658 20.2967 15.9192 20.1493L13.9333 18.1508V11.8121C13.9333 11.4044 13.605 11.0739 13.2 11.0739C12.795 11.0739 12.4667 11.4044 12.4667 11.8121V18.4564C12.4667 18.6523 12.544 18.84 12.6815 18.9784L14.6513 20.9621L14.0257 33.556C13.9592 34.9317 15.013 36.1013 16.3795 36.1683C17.7459 36.2353 18.9077 35.1744 18.9743 33.7987C18.9782 33.7179 18.9782 33.637 18.9743 33.5561L18.3487 20.9622L20.3185 18.9785C20.456 18.8401 20.5333 18.6524 20.5333 18.4565V11.8122C20.5333 11.4044 20.205 11.0739 19.8 11.0739Z" fill="#363853"/>
<path d="M15.4 11.0739C14.995 11.0739 14.6667 11.4044 14.6667 11.8121V17.7182C14.6667 18.1259 14.995 18.4564 15.4 18.4564C15.805 18.4564 16.1333 18.1259 16.1333 17.7182V11.8121C16.1333 11.4044 15.805 11.0739 15.4 11.0739Z" fill="#363853"/>
<path d="M17.6 11.0739C17.195 11.0739 16.8667 11.4044 16.8667 11.8121V17.7182C16.8667 18.1259 17.195 18.4564 17.6 18.4564C18.005 18.4564 18.3333 18.1259 18.3333 17.7182V11.8121C18.3333 11.4044 18.005 11.0739 17.6 11.0739Z" fill="#363853"/>
<path d="M22 0C9.84977 0 0 9.91592 0 22.1478C0 34.3796 9.84977 44.2955 22 44.2955C34.1502 44.2955 44 34.3796 44 22.1478C43.9863 9.92164 34.1446 0.0138423 22 0ZM22 42.819C10.6597 42.819 1.46667 33.5642 1.46667 22.1478C1.46667 10.7313 10.6597 1.47652 22 1.47652C33.3403 1.47652 42.5333 10.7313 42.5333 22.1478C42.5204 33.5587 33.3349 42.806 22 42.819Z" fill="#363853"/>
<path d="M24.3804 36.0063C24.3411 35.6003 23.9824 35.3033 23.5792 35.3429C23.5698 35.3438 23.5604 35.3449 23.5509 35.3462L23.5539 35.3455C22.5214 35.4663 21.4784 35.4663 20.446 35.3455C20.0436 35.2979 19.6792 35.5879 19.632 35.9933C19.5848 36.3986 19.8727 36.7656 20.2751 36.8132C21.4201 36.9479 22.5768 36.9479 23.7218 36.8132C24.1248 36.7736 24.4197 36.4124 24.3804 36.0063Z" fill="#363853"/>
<path d="M33.2202 12.6346C32.9599 12.3222 32.4974 12.2813 32.1871 12.5434C32.1861 12.5442 32.1851 12.5452 32.184 12.546C31.8744 12.8088 31.835 13.2745 32.096 13.5862C36.5175 18.8703 36.1793 26.6837 31.3179 31.5606C31.031 31.8484 31.0302 32.316 31.3161 32.6049C31.602 32.8937 32.0665 32.8945 32.3534 32.6067C37.756 27.1885 38.1327 18.5064 33.2202 12.6346Z" fill="#363853"/>
<path d="M17.0859 9.75919C17.0854 9.75919 17.085 9.75818 17.0845 9.75818C17.0838 9.75818 17.083 9.75919 17.0822 9.75919H17.0859Z" fill="#363853"/>
<path d="M25.4592 7.79522C22.5932 7.10375 19.5874 7.2896 16.8271 8.32898C16.4479 8.47248 16.2563 8.89827 16.3988 9.27986C16.5062 9.5675 16.7794 9.75788 17.0846 9.75816C17.1723 9.75769 17.2592 9.74154 17.3411 9.71026C19.827 8.77443 22.5337 8.6073 25.1145 9.23039C25.5082 9.32618 25.9045 9.08265 25.9996 8.6863C26.0948 8.28994 25.8529 7.89101 25.4592 7.79522Z" fill="#363853"/>
<path d="M12.6492 31.5237C10.1771 29.0391 8.79151 25.6645 8.79994 22.1478C8.7927 19.3382 9.67674 16.5996 11.3233 14.3311C11.5667 14.0052 11.5015 13.5424 11.1778 13.2974C10.854 13.0523 10.3943 13.118 10.1509 13.4439C10.1466 13.4497 10.1424 13.4555 10.1383 13.4614C5.89842 19.3295 6.5223 27.4292 11.6101 32.569C11.8968 32.8579 12.3619 32.8581 12.6488 32.5694C12.9358 32.2807 12.9359 31.8125 12.6492 31.5237Z" fill="#363853"/>
</g>
<defs>
<clipPath id="clip0_0_228">
<rect width="44" height="44.2955" fill="white"/>
</clipPath>
</defs>
</svg>
